PathFileType        4      (X/Y/Z)      C:\Users\cpontonn\Documents\TRAVAIL - COURS\DIGISPORT\Partage Nico\Partage Nico DIGISPORT\TP OPENSIM - eleves - work\DATA\transformed_Statique.trc         
DataRate	CameraRate	NumFrames	NumMarkers	Units	OrigDataRate	OrigDataStartFrame	OrigNumFrames
100.0	100.0	4	38	mm	100.0	458	610
Frame#	Time	LFHD			LBHD			RFHD			RBHD			C7			T10			CLAV			STRN			LSHO			LRAD			LHUM			LWRB			LWRA			LCAR			RSHO			RRAD			RHUM			RWRB			RWRA			RCAR			LFWT			LBWT			RFWT			RBWT			LKNE			LKNI			LANE			LHEE			LANI			LTAR			LTOE			RKNE			RKNI			RANE			RHEE			RANI			RTAR			RTOE			
		X1	Y1	Z1	X2	Y2	Z2	X3	Y3	Z3	X4	Y4	Z4	X5	Y5	Z5	X6	Y6	Z6	X7	Y7	Z7	X8	Y8	Z8	X9	Y9	Z9	X10	Y10	Z10	X11	Y11	Z11	X12	Y12	Z12	X13	Y13	Z13	X14	Y14	Z14	X15	Y15	Z15	X16	Y16	Z16	X17	Y17	Z17	X18	Y18	Z18	X19	Y19	Z19	X20	Y20	Z20	X21	Y21	Z21	X22	Y22	Z22	X23	Y23	Z23	X24	Y24	Z24	X25	Y25	Z25	X26	Y26	Z26	X27	Y27	Z27	X28	Y28	Z28	X29	Y29	Z29	X30	Y30	Z30	X31	Y31	Z31	X32	Y32	Z32	X33	Y33	Z33	X34	Y34	Z34	X35	Y35	Z35	X36	Y36	Z36	X37	Y37	Z37	X38	Y38	Z38	
458	4.57	92.74579999999995	1794.56409	417.1009500000001	100.59678999999997	1743.27283	278.30389000000014	-43.43882000000005	1796.31433	413.1541100000001	-25.364940000000033	1735.03394	263.2902200000001	18.60381999999997	1613.73254	234.33325000000008	18.31897999999998	1386.18042	165.51118000000008	18.64681999999996	1539.85815	362.2407800000001	17.24964999999995	1364.04358	407.31973000000005	220.28042999999997	1578.74841	287.9039600000001	279.70705999999996	1203.18018	270.6097100000001	219.87110999999996	1208.78345	240.4761400000001	294.2601599999999	965.00092	364.6541100000001	219.95209999999994	966.26898	390.00110000000006	273.6028099999999	893.7417	421.70413000000013	-172.53487000000004	1574.11975	288.9496800000001	-238.30655000000002	1198.57532	268.01602	-185.14973000000003	1201.32495	235.67226000000005	-263.91254000000004	957.42871	364.38644	-201.67552000000006	960.14984	402.9728400000001	-258.8206200000001	887.56	414.44873	118.60600999999994	1069.14026	435.3513500000001	49.022459999999974	1110.54883	243.24939000000006	-72.51375000000006	1069.50635	443.3013000000001	-32.10587000000003	1109.87952	245.97136000000006	189.96328999999997	564.0426	254.93958000000006	82.05480999999997	521.88068	269.4913900000001	195.28524999999996	107.85542999999998	233.74857000000003	137.06055999999998	27.67096999999999	158.67737000000002	108.49859999999997	112.52705999999999	250.88849	229.79857999999993	44.26226999999998	391.75424	149.02009999999996	46.30870999999997	451.04596	-168.22560000000001	559.24695	289.83905000000004	-78.99763000000003	509.79852	284.18768000000006	-184.67853000000002	99.32046999999999	236.66524999999996	-121.23678000000001	31.08953999999999	160.43809999999996	-93.34523000000003	119.26974999999999	252.74483	-220.71283000000005	41.07089999999998	391.81445	-137.31145000000006	42.76750999999997	452.92096	
459	4.58	92.74421999999994	1794.54761	417.0276500000001	100.59304999999998	1743.29272	278.2206400000001	-43.45038000000005	1796.31201	413.05243000000013	-25.331350000000032	1735.00476	263.2187800000001	18.610629999999972	1613.7251	234.2391800000001	18.33877999999998	1386.1687	165.43517000000008	18.649129999999957	1539.88013	362.1938800000001	17.26852999999995	1364.06482	407.2634300000001	220.29662999999996	1578.76331	287.8152200000001	279.71810999999997	1203.19238	270.55765000000014	219.86922999999996	1208.80469	240.44183000000012	294.32839999999993	965.03821	364.6114200000001	219.99289999999993	966.29675	389.9834900000001	273.68535999999995	893.77856	421.6796300000001	-172.53955000000002	1574.10669	288.86432000000013	-238.32028000000003	1198.56653	267.96396	-185.14902000000004	1201.33521	235.62019000000006	-263.89597000000003	957.45251	364.37939	-201.67325000000005	960.17853	402.95428000000004	-258.82428000000004	887.58911	414.45459	118.61689999999994	1069.15686	435.30820000000006	49.002629999999975	1110.54529	243.19443000000007	-72.52373000000006	1069.52698	443.2794200000001	-32.09261000000003	1109.84436	245.93571000000006	190.34707999999998	564.16681	254.67668000000006	82.07168999999998	521.88074	269.43448000000006	195.02115999999998	107.64697999999999	233.73694000000003	137.05236999999997	27.67472999999999	158.67307000000002	108.50633999999997	112.52400999999999	250.8674	229.80350999999993	44.24117999999998	391.7569	149.02323999999993	46.32308999999997	451.04587	-168.23700000000002	559.24438	289.81985000000003	-78.98958000000003	509.79041	284.17273000000006	-184.67427000000004	99.32224999999998	236.65061999999998	-121.23461000000002	31.09665999999999	160.43020999999996	-93.34414000000002	119.27617999999998	252.7437	-220.70392000000007	41.06672999999998	391.81683	-137.30194000000006	42.754889999999975	452.91052	
460	4.59	92.74838999999994	1794.55115	416.9524500000001	100.60821999999997	1743.28711	278.14487000000014	-43.45714000000005	1796.29565	412.9692100000001	-25.322050000000033	1735.01746	263.12335000000013	18.601989999999972	1613.69458	234.15292000000008	18.335789999999978	1386.16272	165.37822000000008	18.654559999999957	1539.89136	362.1211900000001	17.26980999999995	1364.07556	407.21082000000007	220.29615999999996	1578.76917	287.7370300000001	279.72982999999994	1203.19958	270.51163000000014	219.86927999999997	1208.7821	240.38718000000011	294.3500399999999	965.06384	364.5952800000001	220.03763999999995	966.29517	389.95544000000007	273.73607999999996	893.80682	421.65149000000014	-172.53258000000002	1574.12622	288.8089000000001	-238.32343000000003	1198.57324	267.91183	-185.18971000000002	1201.31689	235.56300000000005	-263.8976400000001	957.46924	364.39188	-201.66420000000005	960.2146	402.9575500000001	-258.82822000000004	887.62122	414.491	118.62586999999995	1069.14307	435.24951000000004	49.00468999999997	1110.52148	243.14000000000004	-72.51821000000005	1069.53418	443.24072000000007	-32.09761000000003	1109.8418	245.89368000000005	190.31966999999997	564.16785	254.63916000000006	82.05878999999997	521.88043	269.39435000000003	195.02904999999998	107.63980999999998	233.73840000000004	137.05283999999997	27.65743999999999	158.67760000000004	108.51154999999997	112.52119999999998	250.87143	229.80626999999996	44.24429999999998	391.7489	149.02886999999996	46.31285999999997	451.04547	-168.22829000000002	559.24738	289.81696000000005	-78.98245000000003	509.78317	284.17712000000006	-184.68559000000002	99.32749999999999	236.63421999999997	-121.22880000000002	31.07677999999999	160.43599999999998	-93.33623000000003	119.25626999999999	252.73463	-220.70396000000005	41.06835999999998	391.80878	-137.31293000000005	42.76684999999997	452.89401	
461	4.6	92.74092999999995	1794.5415	416.8797600000001	100.63207999999997	1743.25049	278.0548700000001	-43.45485000000005	1796.28638	412.8694500000001	-25.307420000000032	1734.99268	263.0097700000001	18.604139999999973	1613.68994	234.08640000000008	18.348929999999978	1386.14575	165.3194300000001	18.662849999999956	1539.89868	362.03955000000013	17.273699999999952	1364.09399	407.16461000000004	220.29839999999996	1578.77429	287.64917000000014	279.7327599999999	1203.19312	270.46014000000014	219.88456999999997	1208.76794	240.3689700000001	293.52849999999995	965.09235	364.32571000000013	220.05651999999995	966.29865	389.94223000000005	273.7756999999999	893.81104	421.6475800000001	-172.52744000000004	1574.10962	288.7458800000001	-238.35266000000001	1198.55701	267.88538	-185.17657000000003	1201.29761	235.52621000000005	-263.89722000000006	957.47229	364.38202	-201.66530000000006	960.22253	402.96558000000005	-258.81802000000005	887.65009	414.48965	118.63438999999994	1069.15015	435.2264400000001	49.00173999999997	1110.52307	243.09781000000007	-72.51047000000005	1069.53503	443.2045600000001	-32.08965000000003	1109.84143	245.86153000000004	190.34575999999998	564.14954	254.60600000000005	82.04435999999997	521.86963	269.36401000000006	195.03533999999996	107.63777999999999	233.71632000000002	137.04044999999996	27.64424999999999	158.66437000000002	108.50575999999997	112.52559999999998	250.86435	229.79905999999994	44.25297999999998	391.74066	149.02178999999995	46.31985999999997	451.03345	-168.23013000000003	559.23352	289.77905000000004	-78.99748000000002	509.79639	284.1516700000001	-184.67403000000002	99.31005999999998	236.64278999999996	-121.24854000000002	31.08714999999999	160.43119999999996	-93.33546000000003	119.24540999999999	252.73581	-220.70557000000005	41.07214999999998	391.80093	-137.30923000000007	42.759299999999975	452.89563	
